HIERARCHY
ROOT Hips
{
	OFFSET 0.00000 0.00000 0.00000
	CHANNELS 6 Xposition Yposition Zposition Zrotation Yrotation Xrotation 
	JOINT LHipJoint
	{
		OFFSET 0 0 0
		CHANNELS 3 Zrotation Yrotation Xrotation
		JOINT LeftUpLeg
		{
			OFFSET 1.55020 -1.87941 0.79896
			CHANNELS 3 Zrotation Yrotation Xrotation
			JOINT LeftLeg
			{
				OFFSET 2.65269 -7.28822 0.00000
				CHANNELS 3 Zrotation Yrotation Xrotation
				JOINT LeftFoot
				{
					OFFSET 2.61200 -7.17641 0.00000
					CHANNELS 3 Zrotation Yrotation Xrotation
					JOINT LeftToeBase
					{
						OFFSET 0.09338 -0.25656 1.92461
						CHANNELS 3 Zrotation Yrotation Xrotation
						End Site
						{
							OFFSET 0.00000 -0.00000 0.98480
						}
					}
				}
			}
		}
	}
	JOINT RHipJoint
	{
		OFFSET 0 0 0
		CHANNELS 3 Zrotation Yrotation Xrotation
		JOINT RightUpLeg
		{
			OFFSET -1.56866 -1.87941 0.79895
			CHANNELS 3 Zrotation Yrotation Xrotation
			JOINT RightLeg
			{
				OFFSET -2.60199 -7.14892 0.00000
				CHANNELS 3 Zrotation Yrotation Xrotation
				JOINT RightFoot
				{
					OFFSET -2.62841 -7.22151 0.00000
					CHANNELS 3 Zrotation Yrotation Xrotation
					JOINT RightToeBase
					{
						OFFSET -0.19532 -0.53663 1.93132
						CHANNELS 3 Zrotation Yrotation Xrotation
						End Site
						{
							OFFSET -0.00000 -0.00000 1.00896
						}
					}
				}
			}
		}
	}
	JOINT LowerBack
	{
		OFFSET 0 0 0
		CHANNELS 3 Zrotation Yrotation Xrotation
		JOINT Spine
		{
			OFFSET 0.06381 2.07806 -0.22112
			CHANNELS 3 Zrotation Yrotation Xrotation
			JOINT Spine1
			{
				OFFSET -0.02881 2.08890 0.01825
				CHANNELS 3 Zrotation Yrotation Xrotation
				JOINT Neck
				{
					OFFSET 0 0 0
					CHANNELS 3 Zrotation Yrotation Xrotation
					JOINT Neck1
					{
						OFFSET 0.02418 1.74325 -0.02023
						CHANNELS 3 Zrotation Yrotation Xrotation
						JOINT Head
						{
							OFFSET -0.01704 1.71677 0.04090
							CHANNELS 3 Zrotation Yrotation Xrotation
							End Site
							{
								OFFSET -0.00946 1.78238 0.01684
							}
						}
					}
				}
				JOINT LeftShoulder
				{
					OFFSET 0 0 0
					CHANNELS 3 Zrotation Yrotation Xrotation
					JOINT LeftArm
					{
						OFFSET 3.39783 1.34157 0.16610
						CHANNELS 3 Zrotation Yrotation Xrotation
						JOINT LeftForeArm
						{
							OFFSET 5.15218 -0.00000 0.00000
							CHANNELS 3 Zrotation Yrotation Xrotation
							JOINT LeftHand
							{
								OFFSET 3.49459 -0.00000 0.00000
								CHANNELS 3 Zrotation Yrotation Xrotation
								JOINT LeftFingerBase
								{
									OFFSET 0 0 0
									CHANNELS 3 Zrotation Yrotation Xrotation
									JOINT LeftHandIndex1
									{
										OFFSET 0.51247 -0.00000 0.00000
										CHANNELS 3 Zrotation Yrotation Xrotation
										End Site
										{
											OFFSET 0.41316 -0.00000 0.00000
										}
									}
								}
								JOINT LThumb
								{
									OFFSET 0 0 0
									CHANNELS 3 Zrotation Yrotation Xrotation
									End Site
									{
										OFFSET 0.41947 -0.00000 0.41947
									}
								}
							}
						}
					}
				}
				JOINT RightShoulder
				{
					OFFSET 0 0 0
					CHANNELS 3 Zrotation Yrotation Xrotation
					JOINT RightArm
					{
						OFFSET -3.26224 1.05509 0.01188
						CHANNELS 3 Zrotation Yrotation Xrotation
						JOINT RightForeArm
						{
							OFFSET -5.44344 -0.00000 0.00000
							CHANNELS 3 Zrotation Yrotation Xrotation
							JOINT RightHand
							{
								OFFSET -3.58403 -0.00000 0.00000
								CHANNELS 3 Zrotation Yrotation Xrotation
								JOINT RightFingerBase
								{
									OFFSET 0 0 0
									CHANNELS 3 Zrotation Yrotation Xrotation
									JOINT RightHandIndex1
									{
										OFFSET -0.34249 -0.00000 0.00000
										CHANNELS 3 Zrotation Yrotation Xrotation
										End Site
										{
											OFFSET -0.27612 -0.00000 0.00000
										}
									}
								}
								JOINT RThumb
								{
									OFFSET 0 0 0
									CHANNELS 3 Zrotation Yrotation Xrotation
									End Site
									{
										OFFSET -0.28034 -0.00000 0.28034
									}
								}
							}
						}
					}
				}
			}
		}
	}
}
MOTION
Frames: 7
Frame Time: .0083333
-16.031 17.9148 0.729 0 0 0 0 0 0 -21 0 0 0 0 0 0 0 0 0 0 0 0 0 0 21 0 0 0 0 0 0 0 0 0 0 0 0 0 0 0 0 0 0 0 0 0 0 -16 0 0 21 0 0 11 0 0 0 -8 0 0 0 0 0 0 0 0 0 0 0 0 0 0 0 0 0 0 0 0 8 0 0 0 0 0 0 0 0 0 0 0 0 0 0 0 0 0
-16.0310 17.9148 0.7290 -133.8420 -86.3335 136.8840 0.0000 0.0000 0.0000 -20.8587 -3.9979 -15.9112 3.0992 10.8539 31.7887 0.0825 -11.8312 -9.4156 0.6082 -4.9917 -13.8848 0.0000 0.0000 0.0000 25.1791 5.4993 -12.8673 -2.5211 -9.8762 28.5767 -0.9468 2.7853 -17.6627 -0.3878 3.9988 -11.0733 2.7653 -0.6875 8.3210 -0.1959 -0.6538 -0.6327 -1.6758 -0.4072 -5.3665 6.6918 3.2229 2.1483 -5.3745 4.5121 6.3377 -2.8606 2.2759 1.9576 -0.0000 -0.0000 0.0000 -84.6178 2.7521 41.5478 19.1613 -29.6187 -5.1103 -0.0000 -0.0000 8.6548 29.1283 7.1778 3.9829 -7.1250 0.0000 -0.0000 2.0096 38.1765 -0.3378 -0.0000 -0.0000 0.0000 84.6982 2.2281 42.6308 -17.9142 28.0471 -4.5088 0.0000 0.0000 36.2127 -31.2212 -34.2091 18.8177 7.1250 -0.0000 -0.0000 2.1986 -68.4514 -1.2376
-16.0175 17.9109 0.7276 -137.3380 -86.1625 140.5070 0.0000 0.0000 0.0000 -20.8547 -3.9631 -16.2206 3.1358 10.9117 31.9827 0.0747 -11.8568 -9.3304 0.6375 -5.1085 -14.2182 0.0000 0.0000 0.0000 25.0656 6.1871 -13.1584 -2.6228 -10.0578 29.1642 -0.9392 2.7518 -17.5954 -0.3636 3.8733 -10.7205 2.5880 -0.6065 8.4712 -0.2633 -0.5651 -0.5339 -1.6572 -0.3584 -5.3418 6.8917 3.3380 2.3565 -5.4276 4.6770 5.8923 -2.9168 2.3658 1.7937 0.0000 -0.0000 0.0000 -84.4042 2.8322 41.6972 19.4466 -29.9698 -5.2521 -0.0000 -0.0000 8.4250 29.1417 7.7971 4.3256 -7.1250 0.0000 -0.0000 2.0018 38.8825 -0.3018 0.0000 -0.0000 0.0000 84.8900 2.3964 43.1897 -18.3084 28.5503 -4.6957 0.0000 0.0000 36.3407 -30.6843 -34.1623 18.4286 7.1250 -0.0000 -0.0000 2.9260 -68.2364 -1.6331
-15.9975 17.9038 0.7222 -141.4560 -85.9089 144.7950 0.0000 0.0000 0.0000 -20.8325 -3.7847 -16.7458 3.2035 11.0174 32.3387 0.0481 -12.0719 -9.1176 0.6363 -5.1035 -14.2039 0.0000 0.0000 0.0000 24.9316 6.9991 -13.6314 -2.7749 -10.3215 30.0243 -0.9531 2.8027 -17.7201 -0.3728 3.9218 -10.8569 2.3542 -0.5200 8.6434 -0.3265 -0.4749 -0.4296 -1.6027 -0.3075 -5.3235 7.0677 3.5143 2.4396 -5.4605 4.9176 5.5235 -2.9593 2.4913 1.6821 -0.0000 -0.0000 0.0000 -84.2661 2.9743 41.5261 19.7560 -30.3473 -5.4075 -0.0000 -0.0000 8.3562 29.1361 8.4416 4.6781 -7.1250 0.0000 -0.0000 1.9731 39.6154 -0.2620 -0.0000 -0.0000 0.0000 85.0864 2.6075 43.8013 -18.7333 29.0859 -4.9005 0.0000 0.0000 36.6526 -30.1599 -34.0310 18.0143 7.1250 -0.0000 -0.0000 3.5648 -67.9392 -1.9659
-15.9733 17.8922 0.7165 -144.1380 -85.6565 147.6260 0.0000 0.0000 0.0000 -20.7482 -3.7031 -17.2269 3.2730 11.1244 32.7007 0.0244 -12.2088 -8.8943 0.6561 -5.1808 -14.4250 0.0000 0.0000 0.0000 24.8548 7.7459 -14.1004 -2.9402 -10.5976 30.9344 -1.0035 2.8936 -18.1832 -0.4300 4.2085 -11.6640 2.2645 -0.4442 8.9890 -0.4094 -0.3810 -0.3795 -1.6501 -0.2616 -5.4618 7.2647 3.6989 2.5179 -5.4912 5.1703 5.2647 -3.0050 2.6225 1.6094 -0.0000 -0.0000 0.0000 -84.1479 3.3385 41.2035 20.2038 -30.8871 -5.6356 -0.0000 -0.0000 8.4069 29.0991 9.0167 4.9852 -7.1250 0.0000 -0.0000 1.9159 40.2657 -0.2237 -0.0000 -0.0000 0.0000 85.3212 2.7039 44.4523 -19.1911 29.6555 -5.1251 0.0000 0.0000 36.9552 -29.7870 -33.9450 17.7254 7.1250 -0.0000 -0.0000 4.0173 -67.7363 -2.1972
-15.9428 17.8770 0.7086 -146.5680 -85.4637 150.1900 0.0000 0.0000 0.0000 -20.6881 -3.7794 -17.6834 3.3450 11.2336 33.0718 0.0181 -12.2407 -8.8322 0.7032 -5.3598 -14.9377 0.0000 0.0000 0.0000 24.7187 8.6065 -14.6331 -3.1491 -10.9327 32.0531 -1.0797 3.1442 -18.8417 -0.5173 4.6098 -12.7988 2.1673 -0.3713 9.2921 -0.5131 -0.2973 -0.2232 -1.7146 -0.2188 -5.4648 7.4517 3.9195 2.5722 -5.5213 5.4693 4.9391 -3.0482 2.7763 1.5229 0.0000 0.0000 0.0000 -84.0357 3.6864 40.8939 20.7873 -31.5793 -5.9382 -0.0000 -0.0000 8.2856 29.2354 9.3367 5.1883 -7.1250 0.0000 -0.0000 2.0217 40.6418 -0.2174 0.0000 0.0000 0.0000 85.5559 2.9571 45.1442 -19.6470 30.2147 -5.3526 0.0000 0.0000 37.1523 -29.4328 -33.6993 17.3828 7.1250 -0.0000 -0.0000 4.3237 -67.3754 -2.3294
-15.9077 17.8589 0.6957 -149.9110 -85.4136 153.5910 0.0000 0.0000 0.0000 -20.7854 -3.8496 -18.0712 3.4174 11.3418 33.4416 0.0018 -12.3667 -8.7011 0.7370 -5.4844 -15.2954 0.0000 0.0000 0.0000 24.4147 9.4769 -15.2088 -3.3913 -11.3030 33.3088 -1.1515 3.4464 -19.4309 -0.6494 5.1547 -14.3504 1.9075 -0.3127 9.6569 -0.6802 -0.2561 0.0097 -1.7481 -0.1932 -5.4234 7.6575 4.1932 2.5454 -5.4888 5.8331 4.6443 -3.0709 2.9621 1.4647 -0.0000 -0.0000 0.0000 -83.8777 4.0620 40.6524 21.4408 -32.3392 -6.2841 -0.0000 -0.0000 8.0885 29.4539 9.6712 5.4193 -7.1250 0.0000 -0.0000 2.2003 41.0435 -0.2148 -0.0000 -0.0000 0.0000 85.8305 3.2212 45.8696 -20.1388 30.8092 -5.6023 0.0000 0.0000 37.2747 -29.3723 -33.3658 17.1999 7.1250 -0.0000 -0.0000 4.1697 -67.0129 -2.2118
